4th race for the cup 2011 season. 

General
Complete name                    : NASCAR 2011 Bristol 500 HDTV_JHW.mp4
Format                           : MPEG-4
Format profile                   : Base Media / Version 2
Codec ID                         : mp42
File size                        : 1.73 GiB
Duration                         : 2h 49mn
Overall bit rate                 : 1 460 Kbps
Encoded date                     : UTC 2011-03-20 15:03:06
Tagged date                      : UTC 2011-03-20 15:03:06
Writing library                  : AVS 

Video
ID                               : 1
Format                           : AVC
Format/Info                      : Advanced Video Codec
Format profile                   : Main@L5.1
Format settings, CABAC           : Yes
Format settings, ReFrames        : 2 frames
Codec ID                         : avc1
Codec ID/Info                    : Advanced Video Coding
Duration                         : 2h 49mn
Bit rate mode                    : Variable
Bit rate                         : 1 196 Kbps
Width                            : 720 pixels
Height                           : 400 pixels
Display aspect ratio             : 16:9
Frame rate mode                  : Constant
Frame rate                       : 29.970 fps
Color space                      : YUV
Chroma subsampling               : 4:2:0
Bit depth                        : 8 bits
Scan type                        : Progressive
Bits/(Pixel*Frame)               : 0.139
Stream size                      : 1.42 GiB (82%)
Language                         : English
Encoded date                     : UTC 2011-03-20 15:03:06
Tagged date                      : UTC 2011-03-20 15:03:06

Audio
ID                               : 2
Format                           : AAC
Format/Info                      : Advanced Audio Codec
Format profile                   : LC
Codec ID                         : 40
Duration                         : 2h 49mn
Bit rate mode                    : Constant
Bit rate                         : 255 Kbps
Nominal bit rate                 : 192 Kbps
Channel(s)                       : 6 channels
Channel positions                : Front: L C R, Side: L R, LFE
Sampling rate                    : 48.0 KHz
Compression mode                 : Lossy
Stream size                      : 310 MiB (17%)
Language                         : English
Encoded date                     : UTC 2011-03-20 15:03:06
Tagged date                      : UTC 2011-03-20 15:03:06

[img]http://img861.imageshack.us/img861/9716/vlcsnap2011032111h06m29.png[/img]

[img]http://img716.imageshack.us/img716/8375/vlcsnap2011032111h06m35.png[/img]

[img]http://img847.imageshack.us/img847/4553/vlcsnap2011032111h07m21.png[/img]

[img]http://img543.imageshack.us/img543/1936/vlcsnap2011032111h07m28.png[/img]

[img]http://img535.imageshack.us/img535/2019/vlcsnap2011032111h07m37.png[/img]

[img]http://img171.imageshack.us/img171/9696/vlcsnap2011032111h07m45.png[/img]